# xmcd
#
# Track frame offsets:
#	150
#	13293
#	25126
#	39664
#	50884
#	60921
#	72094
#	86292
#	107070
#	120792
#
# Disc length: 1800 seconds
#
# Revision: 0
# Processed by: cddbd v1.4PL0 Copyright (c) Steve Scherf et al.
# Submitted via: dBpowerAMP V4.0
#
DISCID=7807060a
DTITLE=Various Artist - Hannaford Country Holidays
DYEAR=2000
DGENRE=Country
TTITLE0=Silver Bells (Ricky Van Shelton)
TTITLE1=Winter Wonderland (Gatlin Brothers)
TTITLE2=White Christmas (Grystal Gayle)
TTITLE3=Away In A Manger (Willie Nelson)
TTITLE4=Jingle Bell Rock (Bobby Helms)
TTITLE5=Santa Claus Is Coming To Town (Jerry Jeff Walker)
TTITLE6=It's So Close To Christmas (Bellamy Brothers)
TTITLE7=Blue Christmas (Mickey Gilley)
TTITLE8=What Child Is This (Lee Greenwood)
TTITLE9=We Wish You A Merry Christmas (Eddie Rabbitt)
EXTD=
EXTT0=
EXTT1=
EXTT2=
EXTT3=
EXTT4=
EXTT5=
EXTT6=
EXTT7=
EXTT8=
EXTT9=
PLAYORDER=
